<svg xmlns="http://www.w3.org/2000/svg" width="200" height="40" viewBox="0 0 200 40" role="img" aria-label="OpenClaw">
  <defs>
    <linearGradient id="s2" x1="0%" y1="0%" x2="0%" y2="100%">
      <stop offset="0%" stop-color="#ff6a35"></stop>
      <stop offset="100%" stop-color="#e64411"></stop>
    </linearGradient>
  </defs>
  <g transform="translate(0,4) scale(0.5)">
    <path d="M32 10c-12 0-19 9-19 19 0 11 7 19 14 22v2a2 2 0 0 0 4 0v-1h2v1a2 2 0 0 0 4 0v-2c7-3 14-11 14-22 0-10-7-19-19-19z" fill="url(#s2)"></path>
    <path d="M15 27c-6-2-10 1-10 5 0 5 5 7 9 5 3-1 4-4 4-6 0-2-1-3-3-4z" fill="url(#s2)"></path>
    <path d="M49 27c6-2 10 1 10 5 0 5-5 7-9 5-3-1-4-4-4-6 0-2 1-3 3-4z" fill="url(#s2)"></path>
    <circle cx="26" cy="24" r="2.4" fill="#141413"></circle>
    <circle cx="38" cy="24" r="2.4" fill="#141413"></circle>
  </g>
  <text x="38" y="26" font-family="Inter, -apple-system, system-ui, sans-serif" font-weight="500" font-size="18" fill="#141413" letter-spacing="-0.035em">OpenClaw</text>
</svg>